<svg id="レイヤー_1" data-name="レイヤー 1" xmlns="http://www.w3.org/2000/svg" viewBox="0 0 59 51"><defs><style>.cls-1,.cls-6{fill:#fff;}.cls-1,.cls-2,.cls-5{stroke:#ff17c5;}.cls-1,.cls-2,.cls-4,.cls-5,.cls-6{stroke-miterlimit:10;}.cls-2,.cls-8,.cls-9{fill:none;}.cls-2{stroke-width:0.252px;}.cls-3,.cls-4,.cls-5{fill:#f4cef4;}.cls-4{stroke:#ff45db;stroke-width:0.945px;}.cls-5{stroke-width:0.25px;}.cls-6{stroke:#000;}.cls-10,.cls-7,.cls-8,.cls-9{font-size:15.602px;font-family:KozGoPr6N-Regular-83pv-RKSJ-H, Kozuka Gothic Pr6N;}.cls-8,.cls-9{stroke:#f0f;}.cls-8{stroke-width:0.986px;}.cls-9{stroke-width:0.493px;}.cls-10{fill:#ff7bac;}</style></defs><path class="cls-1" d="M60.5,3V53H2.5V3Z" transform="translate(-2 -2.499)"/><polygon class="cls-2" points="1.955 50.501 58 50.501 58 22.326 33.64 39.759 22.776 31.946 1.132 50.501 1.955 50.501"/><polygon class="cls-2" points="1.955 50.501 58 50.501 58 22.326 33.64 39.759 22.776 31.946 1.132 50.501 1.955 50.501"/><polygon class="cls-3" points="1.955 50.501 58 50.501 58 22.326 33.64 39.759 22.776 31.946 1.132 50.501 1.955 50.501"/><path class="cls-4" d="M-.232,96.5" transform="translate(-2 -2.499)"/><path class="cls-5" d="M58,28" transform="translate(-2 -2.499)"/><path class="cls-6" d="M-11,28" transform="translate(-2 -2.499)"/><text class="cls-7" transform="translate(4.386 30.82) scale(0.689 1)">NO IMAGE</text><text class="cls-8" transform="translate(4.386 30.82) scale(0.689 1)">NO IMAGE</text><text class="cls-9" transform="translate(4.386 30.82) scale(0.689 1)">NO IMAGE</text><text class="cls-10" transform="translate(4.386 30.82) scale(0.689 1)">NO IMAGE</text></svg>